<svg width="23" height="16" viewBox="0 0 23 16" fill="none" xmlns="http://www.w3.org/2000/svg">
<path d="M21.4668 4.84375C21.7949 4.84375 22.041 5.17188 21.959 5.45898L21.7129 6.44336C21.6719 6.68945 21.4668 6.8125 21.2617 6.8125H20.4004C20.9746 7.30469 21.3438 8.00195 21.3438 8.78125V10.75C21.3438 11.4473 21.0566 12.0215 20.6875 12.4727V14.6875C20.6875 15.4258 20.0723 16 19.375 16H18.0625C17.3242 16 16.75 15.4258 16.75 14.6875V13.375H6.25V14.6875C6.25 15.4258 5.63477 16 4.9375 16H3.625C2.88672 16 2.3125 15.4258 2.3125 14.6875V12.4727C1.90234 12.0215 1.65625 11.4473 1.65625 10.75V8.78125C1.65625 8.00195 1.98438 7.30469 2.55859 6.8125H1.73828C1.49219 6.8125 1.28711 6.68945 1.24609 6.44336L1 5.45898C0.917969 5.17188 1.16406 4.84375 1.49219 4.84375H3.91211L4.60938 3.16211C5.30664 1.39844 6.98828 0.25 8.875 0.25H14.084C15.9707 0.25 17.6523 1.39844 18.3496 3.16211L19.0469 4.84375H21.4668ZM7.0293 4.14648L6.25 6.15625H16.75L15.9297 4.14648C15.6016 3.36719 14.9043 2.875 14.084 2.875H8.875C8.05469 2.875 7.35742 3.36719 7.0293 4.14648ZM4.9375 10.75C5.7168 10.75 6.90625 10.873 6.90625 10.0938C6.90625 9.31445 5.7168 8.125 4.9375 8.125C4.11719 8.125 3.625 8.6582 3.625 9.4375C3.625 10.2578 4.11719 10.75 4.9375 10.75ZM18.0625 10.75C18.8418 10.75 19.375 10.2578 19.375 9.4375C19.375 8.6582 18.8418 8.125 18.0625 8.125C17.2422 8.125 16.0938 9.31445 16.0938 10.0938C16.0938 10.873 17.2422 10.75 18.0625 10.75Z" fill="#52D3D8"/>
</svg>
