<svg width="14" height="13" viewBox="0 0 14 13" fill="none" xmlns="http://www.w3.org/2000/svg">
<path d="M12.5 0.589844H2C1.86739 0.589844 1.74021 0.642522 1.64645 0.73629C1.55268 0.830059 1.5 0.957236 1.5 1.08984V7.08984C1.50091 7.88521 1.81727 8.64775 2.37968 9.21016C2.9421 9.77257 3.70463 10.0889 4.5 10.0898H8C8.79537 10.0889 9.5579 9.77257 10.1203 9.21016C10.6827 8.64775 10.9991 7.88521 11 7.08984V4.58984H11.5625C12.0762 4.58926 12.5687 4.38495 12.9319 4.02172C13.2951 3.6585 13.4994 3.16602 13.5 2.65234V1.58984C13.5 1.32463 13.3946 1.07027 13.2071 0.882737C13.0196 0.695201 12.7652 0.589844 12.5 0.589844V0.589844ZM12.5 2.65234C12.5 2.90098 12.4012 3.13944 12.2254 3.31526C12.0496 3.49107 11.8111 3.58984 11.5625 3.58984H11V1.58984H12.5V2.65234ZM11.5 11.0898H1C0.867392 11.0898 0.740215 11.1425 0.646447 11.2363C0.552678 11.3301 0.5 11.4572 0.5 11.5898C0.5 11.7225 0.552678 11.8496 0.646447 11.9434C0.740215 12.0372 0.867392 12.0898 1 12.0898H11.5C11.6326 12.0898 11.7598 12.0372 11.8536 11.9434C11.9473 11.8496 12 11.7225 12 11.5898C12 11.4572 11.9473 11.3301 11.8536 11.2363C11.7598 11.1425 11.6326 11.0898 11.5 11.0898Z" fill="#112211"/>
</svg>
