<svg width="18" height="17" viewBox="0 0 18 17" fill="none" xmlns="http://www.w3.org/2000/svg">
<path d="M16.6862 5.55754L15.4702 1.90954C15.2938 1.37841 14.9545 0.916382 14.5005 0.5891C14.0466 0.261818 13.501 0.0859296 12.9413 0.0864268H4.83644C4.27679 0.0859296 3.73121 0.261818 3.27723 0.5891C2.82325 0.916382 2.48395 1.37841 2.30755 1.90954L1.09156 5.55754C0.768197 5.69284 0.492054 5.92071 0.297837 6.21251C0.103621 6.50431 -4.27467e-07 6.84701 0 7.19754V11.642C0 12.298 0.359111 12.8651 0.888889 13.1735V15.1975C0.888889 15.4333 0.982539 15.6594 1.14924 15.8261C1.31594 15.9928 1.54203 16.0864 1.77778 16.0864H2.66667C2.90241 16.0864 3.12851 15.9928 3.2952 15.8261C3.4619 15.6594 3.55555 15.4333 3.55555 15.1975V13.4198H14.2222V15.1975C14.2222 15.4333 14.3159 15.6594 14.4826 15.8261C14.6493 15.9928 14.8754 16.0864 15.1111 16.0864H16C16.2357 16.0864 16.4618 15.9928 16.6285 15.8261C16.7952 15.6594 16.8889 15.4333 16.8889 15.1975V13.1735C17.1586 13.0189 17.3827 12.7959 17.5388 12.527C17.6948 12.2581 17.7773 11.9529 17.7778 11.642V7.19754C17.7778 6.84701 17.6742 6.50431 17.4799 6.21251C17.2857 5.92071 17.0096 5.69284 16.6862 5.55754ZM4.83644 1.8642H12.9404C13.3236 1.8642 13.6631 2.10776 13.784 2.4722L14.7671 5.41976H3.01067L3.99289 2.4722C4.05186 2.29513 4.16508 2.14112 4.31649 2.03199C4.46789 1.92286 4.64981 1.86416 4.83644 1.8642ZM3.11111 10.7531C2.93596 10.753 2.76253 10.7185 2.60073 10.6514C2.43893 10.5843 2.29193 10.486 2.16812 10.3621C2.04431 10.2382 1.94611 10.0912 1.87913 9.92932C1.81216 9.76748 1.77772 9.59402 1.77778 9.41887C1.77784 9.24372 1.81239 9.07029 1.87947 8.90849C1.94656 8.74669 2.04485 8.59969 2.16875 8.47588C2.29264 8.35207 2.43971 8.25387 2.60155 8.18689C2.76339 8.11992 2.93684 8.08548 3.112 8.08554C3.46574 8.08565 3.80494 8.22629 4.05499 8.47651C4.30504 8.72672 4.44545 9.06602 4.44533 9.41976C4.44521 9.7735 4.30458 10.1127 4.05436 10.3628C3.80415 10.6128 3.46485 10.7532 3.11111 10.7531ZM14.6667 10.7531C14.4915 10.753 14.3181 10.7185 14.1563 10.6514C13.9945 10.5843 13.8475 10.486 13.7237 10.3621C13.5999 10.2382 13.5017 10.0912 13.4347 9.92932C13.3677 9.76748 13.3333 9.59402 13.3333 9.41887C13.3334 9.24372 13.3679 9.07029 13.435 8.90849C13.5021 8.74669 13.6004 8.59969 13.7243 8.47588C13.8482 8.35207 13.9953 8.25387 14.1571 8.18689C14.3189 8.11992 14.4924 8.08548 14.6676 8.08554C15.0213 8.08565 15.3605 8.22629 15.6105 8.47651C15.8606 8.72672 16.001 9.06602 16.0009 9.41976C16.0008 9.7735 15.8601 10.1127 15.6099 10.3628C15.3597 10.6128 15.0204 10.7532 14.6667 10.7531Z" fill="#112211"/>
</svg>
