<svg width="16" height="18" viewBox="0 0 16 18" fill="none" xmlns="http://www.w3.org/2000/svg">
<path d="M11.187 12.9146L11.2029 12.9236L11.2155 12.9104C11.446 12.6693 11.723 12.4775 12.0297 12.3465C12.3364 12.2155 12.6665 12.148 13.0001 12.1481C13.5173 12.1481 14.0216 12.31 14.4422 12.6111C14.8627 12.9123 15.1784 13.3375 15.3449 13.8272C15.5115 14.3169 15.5206 14.8464 15.3708 15.3415C15.2211 15.8366 14.9201 16.2724 14.5101 16.5878C14.1001 16.9031 13.6017 17.0822 13.0848 17.0998C12.5678 17.1174 12.0583 16.9728 11.6278 16.6861C11.1972 16.3995 10.8673 15.9852 10.6841 15.5015C10.501 15.0177 10.4739 14.4888 10.6067 13.9889L10.6114 13.9714L10.5956 13.9625L4.81432 10.7097L4.79849 10.7008L4.78591 10.7139C4.44382 11.0706 4.00283 11.3168 3.51967 11.4208C3.03651 11.5248 2.53329 11.4818 2.07474 11.2975C1.61618 11.1131 1.22328 10.7958 0.94656 10.3863C0.669843 9.97682 0.521973 9.4939 0.521973 8.99968C0.521973 8.50546 0.669843 8.02254 0.94656 7.61304C1.22328 7.20355 1.61618 6.88622 2.07474 6.70186C2.53329 6.51751 3.03651 6.47457 3.51967 6.57857C4.00283 6.68257 4.44382 6.92874 4.78591 7.28543L4.79849 7.29855L4.81432 7.28964L10.5956 4.0369L10.6114 4.028L10.6067 4.01044C10.4521 3.42998 10.5144 2.81306 10.782 2.27525C11.0496 1.73745 11.5041 1.31566 12.0604 1.0889C12.6166 0.862144 13.2365 0.845981 13.8038 1.04344C14.3711 1.2409 14.847 1.63843 15.1422 2.16156C15.4375 2.68469 15.5319 3.29752 15.4077 3.88525C15.2836 4.47298 14.9494 4.99528 14.4678 5.3543C13.9862 5.71332 13.3902 5.88443 12.7915 5.83557C12.1928 5.78671 11.6324 5.52123 11.2154 5.08888L11.2028 5.07584L11.187 5.08472L5.40579 8.33746L5.38996 8.34636L5.39463 8.36391C5.50557 8.7805 5.50557 9.21886 5.39463 9.63545L5.38996 9.653L5.40579 9.6619L11.187 12.9146Z" fill="#200E3A" stroke="#112211" stroke-width="0.046875"/>
</svg>
