<svg width="22" height="20" viewBox="0 0 22 20" fill="none" xmlns="http://www.w3.org/2000/svg">
<path d="M6.875 11.125C7.60547 11.125 8.25 11.7695 8.25 12.543V18C8.25 18.7734 7.60547 19.375 6.875 19.375H6.1875C4.64062 19.375 3.4375 18.1719 3.4375 16.625V13.918C3.4375 12.3711 4.64062 11.125 6.1875 11.125H6.875ZM15.8125 11.125C17.3164 11.125 18.5625 12.3711 18.5625 13.918V16.625C18.5625 18.1719 17.3164 19.375 15.8125 19.375H15.125C14.3516 19.375 13.75 18.7734 13.75 18V12.543C13.75 11.7695 14.3516 11.125 15.125 11.125H15.8125ZM11 0.125C17.1445 0.125 21.7852 5.28125 22 11.125V15.9375C22 16.3242 21.6562 16.625 21.3125 16.625H20.625C20.2383 16.625 19.9375 16.3242 19.9375 15.9375V11.125C19.9375 6.22656 15.8984 2.23047 11 2.23047C6.05859 2.23047 2.0625 6.22656 2.0625 11.125V15.9375C2.0625 16.3242 1.71875 16.625 1.375 16.625H0.6875C0.300781 16.625 0 16.3242 0 15.9375V11.125C0.171875 5.28125 4.8125 0.125 11 0.125Z" fill="#52D3D8"/>
</svg>
