<svg width="22" height="18" viewBox="0 0 22 18" fill="none" xmlns="http://www.w3.org/2000/svg">
<path d="M19.25 7.90049C18.7772 7.69293 18.2664 7.58598 17.75 7.58643H4.25C3.73368 7.58593 3.22288 7.69272 2.75 7.90002C2.08166 8.19229 1.51294 8.67294 1.11336 9.28322C0.713775 9.8935 0.500639 10.607 0.5 11.3364V16.5864C0.5 16.7853 0.579018 16.9761 0.71967 17.1168C0.860322 17.2574 1.05109 17.3364 1.25 17.3364C1.44891 17.3364 1.63968 17.2574 1.78033 17.1168C1.92098 16.9761 2 16.7853 2 16.5864V16.2114C2.00122 16.1123 2.04112 16.0177 2.11118 15.9476C2.18124 15.8775 2.27592 15.8376 2.375 15.8364H19.625C19.7241 15.8376 19.8188 15.8775 19.8888 15.9476C19.9589 16.0177 19.9988 16.1123 20 16.2114V16.5864C20 16.7853 20.079 16.9761 20.2197 17.1168C20.3603 17.2574 20.5511 17.3364 20.75 17.3364C20.9489 17.3364 21.1397 17.2574 21.2803 17.1168C21.421 16.9761 21.5 16.7853 21.5 16.5864V11.3364C21.4993 10.607 21.2861 9.89368 20.8865 9.28349C20.4869 8.67331 19.9183 8.19273 19.25 7.90049ZM16.625 0.836426H5.375C4.67881 0.836426 4.01113 1.11299 3.51884 1.60527C3.02656 2.09755 2.75 2.76523 2.75 3.46143V6.83643C2.75002 6.86548 2.75679 6.89413 2.76979 6.92012C2.78278 6.94611 2.80163 6.96873 2.82486 6.98618C2.84809 7.00364 2.87505 7.01546 2.90363 7.02071C2.93221 7.02595 2.96162 7.02449 2.98953 7.01643C3.39896 6.89668 3.82341 6.83606 4.25 6.83643H4.44828C4.49456 6.83672 4.53932 6.81989 4.57393 6.78917C4.60855 6.75844 4.63058 6.71601 4.63578 6.67002C4.67669 6.30355 4.85115 5.96498 5.12586 5.71899C5.40056 5.47299 5.75625 5.3368 6.125 5.33643H8.75C9.11899 5.33645 9.47503 5.47249 9.75002 5.71852C10.025 5.96455 10.1997 6.30331 10.2406 6.67002C10.2458 6.71601 10.2679 6.75844 10.3025 6.78917C10.3371 6.81989 10.3818 6.83672 10.4281 6.83643H11.5747C11.621 6.83672 11.6657 6.81989 11.7003 6.78917C11.735 6.75844 11.757 6.71601 11.7622 6.67002C11.8031 6.30379 11.9773 5.96542 12.2517 5.71945C12.5261 5.47349 12.8815 5.33715 13.25 5.33643H15.875C16.244 5.33645 16.6 5.47249 16.875 5.71852C17.15 5.96455 17.3247 6.30331 17.3656 6.67002C17.3708 6.71601 17.3929 6.75844 17.4275 6.78917C17.4621 6.81989 17.5068 6.83672 17.5531 6.83643H17.75C18.1766 6.83622 18.6011 6.89699 19.0105 7.01689C19.0384 7.02497 19.0679 7.02643 19.0965 7.02115C19.1251 7.01588 19.1521 7.00402 19.1753 6.98651C19.1986 6.969 19.2174 6.94633 19.2304 6.92028C19.2433 6.89423 19.2501 6.86552 19.25 6.83643V3.46143C19.25 2.76523 18.9734 2.09755 18.4812 1.60527C17.9889 1.11299 17.3212 0.836426 16.625 0.836426Z" fill="#52D3D8"/>
</svg>
