<svg width="28" height="22" viewBox="0 0 28 22" fill="none" xmlns="http://www.w3.org/2000/svg">
<path d="M16.3496 10.6406C18.6152 11.3047 20.0215 13.7656 19.1621 16.1875C18.5762 17.9062 16.8574 18.9609 15.0605 19V20.875C15.0605 21.2266 14.748 21.5 14.4355 21.5H13.1855C12.834 21.5 12.5605 21.2266 12.5605 20.875V19C11.3105 19 10.1387 18.6094 9.16211 17.8281C8.84961 17.5938 8.81055 17.1641 9.08398 16.8906L10.4512 15.5625C10.6465 15.3672 10.959 15.3281 11.2324 15.4844C11.623 15.7578 12.0918 15.875 12.5605 15.875H15.1387C15.7637 15.875 16.3105 15.3672 16.3105 14.7422C16.3105 14.2344 15.959 13.7656 15.4512 13.6484L11.4668 12.4766C9.70898 11.9688 8.3418 10.4844 8.18555 8.6875C7.95117 6.14844 9.94336 4 12.4434 4H12.5605V2.125C12.5605 1.8125 12.834 1.5 13.1855 1.5H14.4355C14.748 1.5 15.0605 1.8125 15.0605 2.125V4C16.2715 4.03906 17.4824 4.42969 18.4199 5.17188C18.7324 5.44531 18.7715 5.875 18.498 6.14844L17.1309 7.47656C16.9355 7.67188 16.623 7.71094 16.3887 7.55469C15.998 7.28125 15.5293 7.125 15.0215 7.125H12.4434C11.8184 7.125 11.3105 7.67188 11.3105 8.29688C11.3105 8.80469 11.623 9.27344 12.1309 9.39062L16.3496 10.6406Z" fill="#52D3D8"/>
</svg>
