<svg width="28" height="23" viewBox="0 0 28 23" fill="none" xmlns="http://www.w3.org/2000/svg">
<path d="M27.0625 18.625C27.4062 18.625 27.75 18.9688 27.75 19.3125V20C27.75 21.5469 26.5039 22.75 25 22.75H3C1.45312 22.75 0.25 21.5469 0.25 20V19.3125C0.25 18.9688 0.550781 18.625 0.9375 18.625H11.207C11.1641 19.2695 11.8086 20 12.625 20H15.2031C15.9766 20 16.5781 19.4844 16.6211 18.625H27.0625ZM25 2.8125V17.25H3V2.8125C3 1.69531 3.90234 0.75 5.0625 0.75H22.9375C24.0547 0.75 25 1.69531 25 2.8125ZM22.25 14.5V3.5H5.75V14.5H22.25Z" fill="#52D3D8"/>
</svg>
