<svg width="11" height="14" viewBox="0 0 11 14" fill="none" xmlns="http://www.w3.org/2000/svg">
<g clip-path="url(#clip0_485_14260)">
<path d="M5.10631 6.16134C5.61914 6.16134 6.03488 5.74561 6.03488 5.23277C6.03488 4.71993 5.61914 4.3042 5.10631 4.3042C4.59347 4.3042 4.17773 4.71993 4.17773 5.23277C4.17773 5.74561 4.59347 6.16134 5.10631 6.16134Z" fill="#0084FF"/>
<path d="M5.1077 0.589844C2.54775 0.589844 0.464844 2.58192 0.464844 5.02958C0.464844 6.19522 0.996161 7.74536 2.044 9.63703C2.88551 11.1558 3.85906 12.5292 4.36542 13.2126C4.45099 13.3294 4.56286 13.4243 4.69198 13.4898C4.82109 13.5552 4.96381 13.5894 5.10857 13.5894C5.25333 13.5894 5.39605 13.5552 5.52517 13.4898C5.65428 13.4243 5.76616 13.3294 5.85172 13.2126C6.35721 12.5292 7.33163 11.1558 8.17315 9.63703C9.21924 7.74594 9.75056 6.1958 9.75056 5.02958C9.75056 2.58192 7.66766 0.589844 5.1077 0.589844ZM5.1077 7.08984C4.74039 7.08984 4.38133 6.98092 4.07593 6.77686C3.77052 6.57279 3.53249 6.28275 3.39192 5.9434C3.25136 5.60405 3.21458 5.23064 3.28624 4.87039C3.3579 4.51014 3.53478 4.17923 3.7945 3.9195C4.05423 3.65978 4.38514 3.4829 4.74539 3.41124C5.10564 3.33958 5.47905 3.37636 5.8184 3.51692C6.15775 3.65749 6.44779 3.89552 6.65186 4.20093C6.85592 4.50633 6.96484 4.86539 6.96484 5.2327C6.96431 5.72508 6.76847 6.19714 6.42031 6.54531C6.07214 6.89347 5.60008 7.08931 5.1077 7.08984Z" fill="#52D3D8"/>
</g>
<defs>
<clipPath id="clip0_485_14260">
<rect width="10.2143" height="13" fill="white" transform="translate(0 0.589844)"/>
</clipPath>
</defs>
</svg>
