<svg width="24" height="20" viewBox="0 0 24 20" fill="none" xmlns="http://www.w3.org/2000/svg">
<path d="M8.74733 19.8364H7.49952C7.37414 19.8364 7.25077 19.8049 7.14069 19.7449C7.03062 19.6849 6.93735 19.5982 6.86941 19.4928C6.80147 19.3874 6.76104 19.2667 6.7518 19.1417C6.74257 19.0166 6.76483 18.8913 6.81655 18.7771L9.83811 12.1091L5.30108 12.0083L3.64639 14.0131C3.33092 14.4097 3.07921 14.5864 2.43702 14.5864H1.59702C1.46402 14.5907 1.33195 14.5629 1.212 14.5053C1.09205 14.4476 0.987757 14.362 0.907956 14.2555C0.796393 14.105 0.686706 13.85 0.793581 13.4863L1.72264 10.1581C1.72967 10.1333 1.73811 10.1085 1.74749 10.0841C1.74795 10.0818 1.74795 10.0794 1.74749 10.0771C1.73781 10.0527 1.72951 10.0278 1.72264 10.0025L0.792643 6.6533C0.691862 6.29658 0.802018 6.04721 0.912643 5.90049C0.986929 5.80192 1.08331 5.72215 1.19403 5.66761C1.30475 5.61306 1.42672 5.58526 1.55014 5.58643H2.43702C2.91655 5.58643 3.38202 5.80158 3.65577 6.14893L5.27624 8.12002L9.83811 8.05252L6.81749 1.39627C6.7657 1.28211 6.74335 1.15678 6.75249 1.03175C6.76163 0.906724 6.80196 0.785981 6.8698 0.680561C6.93764 0.575141 7.03082 0.488408 7.14083 0.42829C7.25083 0.368173 7.37416 0.336589 7.49952 0.336426H8.76092C8.9369 0.339962 9.10983 0.383095 9.26685 0.462623C9.42388 0.54215 9.56097 0.656028 9.66796 0.795801L15.5297 7.9208L18.2376 7.84955C18.4359 7.83877 18.9853 7.83502 19.1123 7.83502C21.7026 7.83643 23.2495 8.67736 23.2495 10.0864C23.2495 10.5299 23.0723 11.3521 21.8869 11.8752C21.187 12.1846 20.2533 12.3411 19.1114 12.3411C18.9858 12.3411 18.4378 12.3374 18.2367 12.3266L15.5292 12.2544L9.65296 19.3794C9.54588 19.5186 9.40891 19.6319 9.25216 19.711C9.0954 19.7901 8.92288 19.833 8.74733 19.8364Z" fill="#112211"/>
</svg>
