<svg width="11" height="6" viewBox="0 0 11 6" fill="none" xmlns="http://www.w3.org/2000/svg">
<path d="M5.49903 5.99918C5.31681 6.00449 5.18919 5.91363 5.07145 5.79596C4.26776 4.99247 3.46278 4.19026 2.65818 3.38762C1.84256 2.57399 1.02737 1.75993 0.210894 0.947218C0.093425 0.830304 0.00164245 0.705135 3.03426e-05 0.529844C-0.00185045 0.317994 0.0836449 0.155462 0.273121 0.0606331C0.459534 -0.0327481 0.646431 -0.0182745 0.817798 0.104107C0.876425 0.145973 0.927314 0.199311 0.978633 0.250504C2.43388 1.70145 3.8887 3.15282 5.34368 4.60404C5.44804 4.70814 5.55232 4.70836 5.65653 4.60468C7.11511 3.14972 8.57359 1.69464 10.0321 0.239676C10.3087 -0.0361788 10.6311 -0.0716658 10.8537 0.148814C11.0764 0.369348 11.0426 0.694038 10.7673 0.968767C9.1619 2.57045 7.55608 4.17171 5.95139 5.77409C5.82285 5.90248 5.68824 6.01087 5.49903 5.99913V5.99918Z" fill="black" fill-opacity="0.8"/>
</svg>
